# xmcd CD database file
#
# Track frame offsets:
#	150
#	10943
#	26184
#	39427
#	51079
#
# Disc length: 846 seconds
#
# Revision: 0
# Processed by: cddbd v1.5.1PL0 Copyright (c) Steve Scherf et al.
# Submitted via: CDex 1.60beta1
#
DISCID=37034c05
DTITLE=Clarissa and Araound Midnight - Unforgetable Momenst
DYEAR=1994
DGENRE=Jazz
TTITLE0=Straighten Up And Fly Right
TTITLE1=Mona Lisa
TTITLE2=Route 66
TTITLE3=L-O-V-E
TTITLE4=As Time Goes By
EXTD=YEAR: 1994
EXTT0=
EXTT1=
EXTT2=
EXTT3=
EXTT4=
PLAYORDER=
